<?xml version="1.0" encoding="UTF-8"?>
<svg width="333px" height="385px" viewBox="0 0 333 385" version="1.1" xmlns="http://www.w3.org/2000/svg" xmlns:xlink="http://www.w3.org/1999/xlink">
    <!-- Generator: Sketch 48.2 (47327) - http://www.bohemiancoding.com/sketch -->
    <title>Group</title>
    <desc>Created with Sketch.</desc>
    <defs></defs>
    <g id="motivo" stroke="none" stroke-width="1" fill="none" fill-rule="evenodd" transform="translate(-119.000000, -612.000000)" opacity="0.1">
        <g id="Group" transform="translate(119.000000, 611.000000)">
            <path d="M148.772825,57 C148.674132,57 148.58944,57.0416093 148.530073,57.1112614 C148.48233,57.1672756 138.771079,77.8671163 138.749188,77.9373639 C138.739702,77.9678164 138.739074,78.0049341 138.739074,78.0385106 C138.739074,78.2172684 138.883985,78.36218 139.062743,78.36218 C139.179054,78.36218 139.278781,78.3025656 139.335839,78.21046 C139.366472,78.1610091 149.050873,57.5068666 149.076265,57.4450454 C149.09183,57.4071518 149.096494,57.3671731 149.096494,57.3236694 C149.096494,57.1449116 148.951583,57 148.772825,57 Z M136.746484,60.2265793 C136.672079,60.2397105 136.602741,60.2798533 136.554305,60.3378406 C136.554305,60.3378406 130.140258,67.400457 130.080917,67.468682 C130.031486,67.5255141 130,67.5998535 130,67.68109 C130,67.7536185 130.020395,67.8193023 130.060688,67.8732687 C130.119703,67.952311 136.554305,75.0142247 136.554305,75.0142247 C136.668156,75.1413786 136.892455,75.1584531 137.01958,75.0445687 C137.146705,74.9306873 137.153724,74.7063902 137.039809,74.579294 L130.768715,67.68109 L137.039809,60.7727714 C137.22066,60.5837844 137.037349,60.2030553 136.776828,60.2265793 C136.76672,60.2260938 136.756592,60.2260938 136.746484,60.2265793 Z M150.987937,60.2265793 C150.750921,60.2564734 150.629682,60.6010486 150.795759,60.7727714 L157.066853,67.68109 L150.795759,74.579294 C150.681843,74.7063902 150.688861,74.930686 150.815988,75.0445687 C150.943113,75.1584518 151.167412,75.1413773 151.281263,75.0142247 C151.281263,75.0142247 157.715865,67.9523088 157.77488,67.8732687 C157.815173,67.8192806 157.835568,67.7536243 157.835568,67.68109 C157.835568,67.599849 157.804085,67.5255183 157.754651,67.468682 C157.69531,67.4004525 151.281263,60.3378406 151.281263,60.3378406 C151.216727,60.2633274 151.116699,60.2210079 151.018281,60.2265793 C151.008173,60.2260938 150.998045,60.2260938 150.987937,60.2265793 Z" id="Shape-Copy-5" stroke="#000000" stroke-width="0.5" fill="#9B9B9B" fill-rule="nonzero"></path>
            <path d="M175.772825,363.63782 C175.674132,363.63782 175.58944,363.679429 175.530073,363.749081 C175.48233,363.805096 165.771079,384.504936 165.749188,384.575184 C165.739702,384.605636 165.739074,384.642754 165.739074,384.676331 C165.739074,384.855088 165.883985,385 166.062743,385 C166.179054,385 166.278781,384.940386 166.335839,384.84828 C166.366472,384.798829 176.050873,364.144687 176.076265,364.082865 C176.09183,364.044972 176.096494,364.004993 176.096494,363.961489 C176.096494,363.782732 175.951583,363.63782 175.772825,363.63782 Z M163.746484,366.864399 C163.672079,366.877531 163.602741,366.917673 163.554305,366.975661 C163.554305,366.975661 157.140258,374.038277 157.080917,374.106502 C157.031486,374.163334 157,374.237674 157,374.31891 C157,374.391438 157.020395,374.457122 157.060688,374.511089 C157.119703,374.590131 163.554305,381.652045 163.554305,381.652045 C163.668156,381.779199 163.892455,381.796273 164.01958,381.682389 C164.146705,381.568507 164.153724,381.34421 164.039809,381.217114 L157.768715,374.31891 L164.039809,367.410591 C164.22066,367.221604 164.037349,366.840875 163.776828,366.864399 C163.76672,366.863914 163.756592,366.863914 163.746484,366.864399 Z M177.987937,366.864399 C177.750921,366.894293 177.629682,367.238869 177.795759,367.410591 L184.066853,374.31891 L177.795759,381.217114 C177.681843,381.34421 177.688861,381.568506 177.815988,381.682389 C177.943113,381.796272 178.167412,381.779197 178.281263,381.652045 C178.281263,381.652045 184.715865,374.590129 184.77488,374.511089 C184.815173,374.457101 184.835568,374.391444 184.835568,374.31891 C184.835568,374.237669 184.804085,374.163338 184.754651,374.106502 C184.69531,374.038272 178.281263,366.975661 178.281263,366.975661 C178.216727,366.901147 178.116699,366.858828 178.018281,366.864399 C178.008173,366.863914 177.998045,366.863914 177.987937,366.864399 Z" id="Shape-Copy-2" stroke="#000000" stroke-width="0.5" fill="#9B9B9B" fill-rule="nonzero"></path>
            <path d="M172.768181,211.641974 C172.768181,211.9661 172.505426,212.228856 172.1813,212.228856 L167.486247,212.228856 C167.162122,212.228856 166.899366,211.9661 166.899366,211.641974 C166.899366,211.317848 167.162122,211.055093 167.486247,211.055093 L172.1813,211.055093 C172.505426,211.055093 172.768181,211.317848 172.768181,211.641974 Z M193.716919,211.228223 L190.632856,208.135357 C190.484513,207.987014 190.268298,207.929079 190.065657,207.983376 C189.863016,208.037674 189.704736,208.195954 189.650438,208.398595 C189.596141,208.601236 189.654075,208.817451 189.802419,208.965794 L191.891717,211.055093 L179.787285,211.055093 C176.751775,211.052998 174.097715,209.008421 173.321218,206.073907 C172.544721,203.139392 173.84022,200.04973 176.477431,198.546586 C179.114643,197.043443 182.43322,197.5032 184.562455,199.666688 C186.69169,201.830176 187.098432,205.155667 185.553396,207.768556 C185.498621,207.860501 185.441889,207.950489 185.383201,208.038521 C185.263669,208.213601 185.247848,208.439536 185.341812,208.629566 C185.435777,208.819596 185.62492,208.944181 185.836611,208.955481 C186.048302,208.966781 186.249633,208.863039 186.363293,208.684091 C186.431762,208.580409 186.498276,208.47477 186.562833,208.367175 C188.380951,205.295186 187.903782,201.384247 185.400376,198.839522 C182.89697,196.294796 178.994367,195.753672 175.893028,197.521261 C172.791689,199.288849 171.268422,202.922413 172.182114,206.373187 C173.095805,209.823961 176.217597,212.227613 179.787285,212.228856 L191.891717,212.228856 L189.802419,214.318154 C189.5731,214.547473 189.5731,214.919273 189.802419,215.148592 C190.031738,215.377911 190.403537,215.377911 190.632856,215.148592 L193.722788,212.067463 C193.835711,211.957047 193.899366,211.805778 193.899366,211.647843 C193.899366,211.489908 193.835711,211.338639 193.722788,211.228223 L193.716919,211.228223 Z" id="Shape" fill="#000000" fill-rule="nonzero" transform="translate(180.399366, 205.904535) rotate(-30.000000) translate(-180.399366, -205.904535) "></path>
            <g id="grafico-icon" transform="translate(20.500000, 326.500000) rotate(-7.000000) translate(-20.500000, -326.500000) translate(12.000000, 318.000000)" stroke="#000000" stroke-linecap="round" stroke-linejoin="round">
                <polyline id="Shape" points="16.5 16.5 0.5 16.5 0.5 0.5"></polyline>
                <rect id="Rectangle-path" x="4.5" y="10.5" width="4" height="6"></rect>
                <rect id="Rectangle-path" x="8.5" y="6.5" width="4" height="10"></rect>
                <rect id="Rectangle-path" x="12.5" y="0.5" width="4" height="16"></rect>
            </g>
            <g id="chat-icon-copy" transform="translate(320.367009, 293.367009) rotate(-22.000000) translate(-320.367009, -293.367009) translate(310.867009, 283.867009)" stroke="#000000" stroke-linecap="round" stroke-linejoin="round">
                <path d="M17.6,15.79 C18.1664851,15.160266 18.4861396,14.3469227 18.5,13.5 C18.5,11.29 16.26,9.5 13.5,9.5 C10.74,9.5 8.5,11.29 8.5,13.5 C8.5,15.71 10.74,17.5 13.5,17.5 C14.2422323,17.4962734 14.9775744,17.3573378 15.67,17.09 L18.5,18.5 L17.6,15.79 Z" id="Shape"></path>
                <path d="M13.5,9.5 C14.919172,9.48841693 16.2878878,10.0258708 17.32,11 C18.0855441,9.99379067 18.50005,8.7643239 18.5,7.5 C18.5,3.63 14.5,0.5 9.5,0.5 C4.5,0.5 0.5,3.63 0.5,7.5 C0.524782028,9.12861599 1.21062274,10.6771721 2.4,11.79 L1.5,14.5 L4.2,13.15 C5.57426953,13.9029245 7.09640803,14.3465971 8.66,14.45 C8.55667614,14.1438091 8.50266925,13.8231432 8.5,13.5 C8.5,11.29 10.74,9.5 13.5,9.5 Z" id="Shape"></path>
            </g>
            <g id="bandera-icon-copy" transform="translate(286.269910, 11.612722) rotate(16.000000) translate(-286.269910, -11.612722) translate(277.269910, 2.112722)" stroke="#000000" stroke-linecap="round" stroke-linejoin="round">
                <path d="M0.5,2.5 L0.5,18.5" id="Shape"></path>
                <path d="M0.5,12.5 C0.5,12.5 2.5,9.5 5.5,9.5 C8.5,9.5 8.5,10.5 11.5,10.5 C15.5,10.5 17.5,3.5 17.5,3.5 C16.1308236,4.75064019 14.3539831,5.46137638 12.5,5.5 C9.5,5.5 9.5,0.5 5.5,0.5 C3.64601693,0.53862362 1.86917645,1.24935981 0.5,2.5 L0.5,12.5 Z" id="Shape"></path>
            </g>
            <g id="note-icon-copy" transform="translate(308.981561, 139.981561) rotate(-21.000000) translate(-308.981561, -139.981561) translate(300.481561, 131.481561)" stroke="#000000" stroke-linecap="round" stroke-linejoin="round">
                <polyline id="Shape" points="12.5 16.5 12.5 12.5 16.5 12.5"></polyline>
                <polygon id="Shape" points="0.5 0.5 0.5 16.5 12.5 16.5 16.5 12.5 16.5 0.5"></polygon>
            </g>
            <path d="M18.409058,155.934169 L15.039459,159.303817 L2.08580873,159.303817 L2.08580873,176.020959 L18.8027514,176.020959 L18.8027514,162.236494 L21.7571047,159.282116 L18.409058,155.934169 Z M17.7834264,175.001633 L3.10513454,175.001633 L3.10513454,160.323142 L14.0201458,160.323142 L11.8455547,162.497771 L5.07579772,162.497771 L5.07579772,163.517097 L10.8262412,163.517097 L8.81032282,165.533053 L5.07579772,165.533053 L5.07579772,166.552378 L7.7910094,166.552378 L5.77507869,168.568333 L5.07579772,168.568333 L5.07579772,169.58766 L5.11219361,169.58766 L4.65711781,173.103338 L8.51731677,172.522005 L11.4516356,169.58766 L15.8126639,169.58766 L15.8126639,168.568333 L12.4709617,168.568333 L14.4868929,166.552378 L15.8126639,166.552378 L15.8126639,165.533053 L15.506219,165.533053 L17.7834264,163.25582 L17.7834264,175.001633 Z M17.7834264,161.81423 L14.064629,165.533053 L13.0453155,166.552378 L11.0293726,168.568333 L10.0100591,169.58766 L8.03373389,171.563998 L5.84148689,171.894083 L6.13155657,169.653457 L6.19735486,169.58766 L7.21666828,168.568333 L9.23258671,166.552378 L10.2519001,165.533053 L12.2678186,163.517097 L13.287132,162.497771 L15.4617221,160.323142 L16.4810355,159.303817 L18.409058,157.375758 L20.3155156,159.282116 L18.8027517,160.794892 L17.7834264,161.81423 Z" id="Shape-Copy-6" fill="#000000" fill-rule="nonzero" transform="translate(11.921457, 165.977564) rotate(13.000000) translate(-11.921457, -165.977564) "></path>
        </g>
    </g>
</svg>